<svg width="45" height="45" viewBox="0 0 45 45" fill="none" xmlns="http://www.w3.org/2000/svg">
<path d="M22.5 10.5938C21.5625 10.5938 20.7578 10.2578 20.0859 9.58594C19.4141 8.91406 19.0781 8.10938 19.0781 7.17188C19.0781 6.23438 19.4141 5.42969 20.0859 4.75781C20.7578 4.08594 21.5625 3.75 22.5 3.75C23.4375 3.75 24.2422 4.08594 24.9141 4.75781C25.5859 5.42969 25.9219 6.23438 25.9219 7.17188C25.9219 8.10938 25.5859 8.91406 24.9141 9.58594C24.2422 10.2578 23.4375 10.5938 22.5 10.5938ZM17.4844 41.25V16.2656C15.3594 16.1094 13.3047 15.8906 11.3203 15.6094C9.33594 15.3281 7.4375 14.9688 5.625 14.5312L6.32812 11.7188C8.98438 12.3438 11.625 12.7891 14.25 13.0547C16.875 13.3203 19.625 13.4531 22.5 13.4531C25.375 13.4531 28.125 13.3203 30.75 13.0547C33.375 12.7891 36.0156 12.3438 38.6719 11.7188L39.375 14.5312C37.5625 14.9688 35.6641 15.3281 33.6797 15.6094C31.6953 15.8906 29.6406 16.1094 27.5156 16.2656V41.25H24.7031V29.0625H20.2969V41.25H17.4844Z" fill="#FFD000"/>
</svg>
