<svg width="34" height="34" viewBox="0 0 34 34" fill="none" xmlns="http://www.w3.org/2000/svg">
<path d="M5.625 25.6667C7.04167 24.6389 8.13889 23.3194 8.91667 21.7083C9.69444 20.0972 10.0833 18.4167 10.0833 16.6667C10.0833 14.9167 9.69444 13.2292 8.91667 11.6042C8.13889 9.97917 7.04167 8.65278 5.625 7.625C4.56944 8.90278 3.78472 10.3125 3.27083 11.8542C2.75694 13.3958 2.5 15 2.5 16.6667C2.5 18.3333 2.75694 19.9306 3.27083 21.4583C3.78472 22.9861 4.56944 24.3889 5.625 25.6667ZM16.6667 30.8333C18.3889 30.8333 20.0347 30.5625 21.6042 30.0208C23.1736 29.4792 24.625 28.6389 25.9583 27.5C24.3194 26.1667 23.0486 24.5486 22.1458 22.6458C21.2431 20.7431 20.7917 18.75 20.7917 16.6667C20.7917 14.5833 21.2431 12.5833 22.1458 10.6667C23.0486 8.75 24.3194 7.125 25.9583 5.79167C24.625 4.68056 23.1736 3.85417 21.6042 3.3125C20.0347 2.77083 18.3889 2.5 16.6667 2.5C14.9444 2.5 13.2986 2.77083 11.7292 3.3125C10.1597 3.85417 8.70833 4.68056 7.375 5.79167C9.01389 7.125 10.2917 8.75 11.2083 10.6667C12.125 12.5833 12.5833 14.5833 12.5833 16.6667C12.5833 18.75 12.125 20.7431 11.2083 22.6458C10.2917 24.5486 9.01389 26.1667 7.375 27.5C8.70833 28.6389 10.1597 29.4792 11.7292 30.0208C13.2986 30.5625 14.9444 30.8333 16.6667 30.8333ZM27.75 25.6667C28.8056 24.3889 29.5833 22.9861 30.0833 21.4583C30.5833 19.9306 30.8333 18.3333 30.8333 16.6667C30.8333 15 30.5833 13.3958 30.0833 11.8542C29.5833 10.3125 28.8056 8.90278 27.75 7.625C26.3333 8.65278 25.2361 9.97917 24.4583 11.6042C23.6806 13.2292 23.2917 14.9167 23.2917 16.6667C23.2917 18.4167 23.6806 20.0972 24.4583 21.7083C25.2361 23.3194 26.3333 24.6389 27.75 25.6667ZM16.6667 33.3333C14.3889 33.3333 12.2361 32.8958 10.2083 32.0208C8.18056 31.1458 6.40972 29.9514 4.89583 28.4375C3.38194 26.9236 2.1875 25.1528 1.3125 23.125C0.4375 21.0972 0 18.9444 0 16.6667C0 14.3611 0.4375 12.2014 1.3125 10.1875C2.1875 8.17361 3.38194 6.40972 4.89583 4.89583C6.40972 3.38194 8.18056 2.1875 10.2083 1.3125C12.2361 0.4375 14.3889 0 16.6667 0C18.9722 0 21.1319 0.4375 23.1458 1.3125C25.1597 2.1875 26.9236 3.38194 28.4375 4.89583C29.9514 6.40972 31.1458 8.17361 32.0208 10.1875C32.8958 12.2014 33.3333 14.3611 33.3333 16.6667C33.3333 18.9444 32.8958 21.0972 32.0208 23.125C31.1458 25.1528 29.9514 26.9236 28.4375 28.4375C26.9236 29.9514 25.1597 31.1458 23.1458 32.0208C21.1319 32.8958 18.9722 33.3333 16.6667 33.3333Z" fill="#FFD000"/>
</svg>
