<svg width="40" height="40" viewBox="0 0 40 40" fill="none" xmlns="http://www.w3.org/2000/svg">
<path d="M20.0417 17.5C18.2917 17.5 16.8056 16.8889 15.5833 15.6667C14.3611 14.4444 13.75 12.9722 13.75 11.25C13.75 9.5 14.3611 8.02083 15.5833 6.8125C16.8056 5.60417 18.2778 5 20 5C21.75 5 23.2292 5.60417 24.4375 6.8125C25.6458 8.02083 26.25 9.48611 26.25 11.2083C26.25 12.9583 25.6458 14.4444 24.4375 15.6667C23.2292 16.8889 21.7639 17.5 20.0417 17.5ZM20 15C21.0556 15 21.9444 14.6319 22.6667 13.8958C23.3889 13.1597 23.75 12.2778 23.75 11.25C23.75 10.1944 23.3889 9.30556 22.6667 8.58333C21.9444 7.86111 21.0694 7.5 20.0417 7.5C18.9861 7.5 18.0903 7.86111 17.3542 8.58333C16.6181 9.30556 16.25 10.1806 16.25 11.2083C16.25 12.2639 16.6181 13.1597 17.3542 13.8958C18.0903 14.6319 18.9722 15 20 15ZM11.2917 35C9.54167 35 8.05556 34.3889 6.83333 33.1667C5.61111 31.9444 5 30.4722 5 28.75C5 27 5.61111 25.5208 6.83333 24.3125C8.05556 23.1042 9.52778 22.5 11.25 22.5C13 22.5 14.4792 23.1042 15.6875 24.3125C16.8958 25.5208 17.5 26.9861 17.5 28.7083C17.5 30.4583 16.8958 31.9444 15.6875 33.1667C14.4792 34.3889 13.0139 35 11.2917 35ZM11.25 32.5C12.3056 32.5 13.1944 32.1319 13.9167 31.3958C14.6389 30.6597 15 29.7778 15 28.75C15 27.6944 14.6389 26.8056 13.9167 26.0833C13.1944 25.3611 12.3194 25 11.2917 25C10.2361 25 9.34028 25.3611 8.60417 26.0833C7.86806 26.8056 7.5 27.6806 7.5 28.7083C7.5 29.7639 7.86806 30.6597 8.60417 31.3958C9.34028 32.1319 10.2222 32.5 11.25 32.5ZM28.7917 35C27.0417 35 25.5556 34.3889 24.3333 33.1667C23.1111 31.9444 22.5 30.4722 22.5 28.75C22.5 27 23.1111 25.5208 24.3333 24.3125C25.5556 23.1042 27.0278 22.5 28.75 22.5C30.5 22.5 31.9792 23.1042 33.1875 24.3125C34.3958 25.5208 35 26.9861 35 28.7083C35 30.4583 34.3958 31.9444 33.1875 33.1667C31.9792 34.3889 30.5139 35 28.7917 35ZM28.75 32.5C29.8056 32.5 30.6944 32.1319 31.4167 31.3958C32.1389 30.6597 32.5 29.7778 32.5 28.75C32.5 27.6944 32.1389 26.8056 31.4167 26.0833C30.6944 25.3611 29.8194 25 28.7917 25C27.7361 25 26.8403 25.3611 26.1042 26.0833C25.3681 26.8056 25 27.6806 25 28.7083C25 29.7639 25.3681 30.6597 26.1042 31.3958C26.8403 32.1319 27.7222 32.5 28.75 32.5Z" fill="#FFD000"/>
</svg>
