<svg width="45" height="45" viewBox="0 0 45 45" fill="none" xmlns="http://www.w3.org/2000/svg">
<path d="M43.125 13.125C43.125 15.9688 42.5859 18.6406 41.5078 21.1406C40.4297 23.6406 38.9531 25.8281 37.0781 27.7031C35.2031 29.5781 33.0156 31.0547 30.5156 32.1328C28.0156 33.2109 25.3438 33.75 22.5 33.75C19.6562 33.75 16.9844 33.2109 14.4844 32.1328C11.9844 31.0547 9.79688 29.5781 7.92188 27.7031C6.04688 25.8281 4.57031 23.6406 3.49219 21.1406C2.41406 18.6406 1.875 15.9687 1.875 13.125L4.6875 13.125C4.6875 18.0625 6.42188 22.2656 9.89063 25.7344C13.3594 29.2031 17.5625 30.9375 22.5 30.9375C27.4375 30.9375 31.6406 29.2031 35.1094 25.7344C38.5781 22.2656 40.3125 18.0625 40.3125 13.125L43.125 13.125ZM37.5 13.125C37.5 17.3125 36.0469 20.8594 33.1406 23.7656C30.2344 26.6719 26.6875 28.125 22.5 28.125C18.3125 28.125 14.7656 26.6719 11.8594 23.7656C8.95313 20.8594 7.5 17.3125 7.5 13.125L10.3125 13.125C10.3125 16.5312 11.4922 19.4141 13.8516 21.7734C16.2109 24.1328 19.0938 25.3125 22.5 25.3125C25.9063 25.3125 28.7891 24.1328 31.1484 21.7734C33.5078 19.4141 34.6875 16.5312 34.6875 13.125L37.5 13.125Z" fill="#FFD000"/>
</svg>
